{"title":"Big Brother Canada S03E06 HDTV x264-LaS","uid":11799138,"size":327775379,"categoryP":"video","categoryS":"tv_shows","magnet":"?xt=urn:btih:066caf908985f8fa360eac0d2b58b6c22ab5c854&amp;dn=Big+Brother+Canada+S03E06+HDTV+x264-LaS&amp;tr=udp%3A%2F%2Ftracker.openbittorrent.com%3A80&amp;tr=udp%3A%2F%2Fopen.demonii.com%3A1337&amp;tr=udp%3A%2F%2Ftracker.coppersurfer.tk%3A6969&amp;tr=udp%3A%2F%2Fexodus.desync.com%3A6969","seeders":1,"leechers":0,"uploader":"TvTeam","files":4,"time":1428309614,"description":" &lt;a href=&quot;https://www.torrenting.com&quot; rel=&quot;nofollow&quot; target=&quot;_NEW&quot;&gt;https://www.torrenting.com&lt;/a&gt;\n\nSign up is OPEN - for time being. Come and have fun.\n------------------------------------------------------------------------\n ^_^                           +      + +    \n                                +--++----+    \n                                +    \n                                +--+----    \n                           +      \n                           +------++-+  +-++------+    \n                                                                                                               \n*******************************************************************************\n                    Big Brother Canada S03E06 HDTV x264-LaS\n*******************************************************************************\n\n-------------------------------------------------------------------------------\n                              General Information\n-------------------------------------------------------------------------------\nType.................: TV Show\nVideo Format.........: x264\nResolution...........: 720x404\nFPS..................: 29.970\nMovie Information....: http://www.imdb.com/title/tt4565484/?ref_=ttep_ep6\n\nGeneral\nComplete name : Big Brother Canada S03E06 HDTV x264-LaS.mp4\nFormat : MPEG-4\nFormat profile : Base Media\nCodec ID : isom\nFile size : 308 MiB\nDuration : 44mn 11s\nOverall bit rate mode : Variable\nOverall bit rate : 974 Kbps\n\n\nVideo\nID : 1\nFormat : AVC\nFormat/Info : Advanced Video Codec\nFormat profile : &lt;a class=&quot;__cf_email__&quot; href=&quot;/cdn-cgi/l/email-protection&quot; data-cfemail=&quot;7a32131d123a3649544a&quot;&gt;[email&amp;#160;protected]&lt;/a&gt;&lt;script cf-hash='f9e31' type=&quot;text/javascript&quot;&gt;\n/* &lt;![CDATA[ */!function(){try{var t=&quot;currentScript&quot;in document?document.currentScript:function(){for(var t=document.getElementsByTagName(&quot;script&quot;),e=t.length;e--;)if(t[e].getAttribute(&quot;cf-hash&quot;))return t[e]}();if(t&amp;&amp;t.previousSibling){var e,r,n,i,c=t.previousSibling,a=c.getAttribute(&quot;data-cfemail&quot;);if(a){for(e=&quot;&quot;,r=parseInt(a.substr(0,2),16),n=2;a.length-n;n+=2)i=parseInt(a.substr(n,2),16)^r,e+=String.fromCharCode(i);e=document.createTextNode(e),c.parentNode.replaceChild(e,c)}}}catch(u){}}();/* ]]&gt; */&lt;/script&gt;\nFormat settings, CABAC : Yes\nFormat settings, ReFrames : 5 frames\nCodec ID : avc1\nCodec ID/Info : Advanced Video Coding\nDuration : 44mn 11s\nBit rate : 841 Kbps\nMaximum bit rate : 3 080 Kbps\nWidth : 720 pixels\nHeight : 404 pixels\nDisplay aspect ratio : 16:9\nFrame rate mode : Constant\nFrame rate : 29.970 fps\nColor space : YUV\nChroma subsampling : 4:2:0\nBit depth : 8 bits\nScan type : Progressive\nBits/(Pixel*Frame) : 0.096\nStream size : 266 MiB (86%)\nWriting library : x264 core 130 r2273 b3065e6\n\n\nAudio\nID : 2\nFormat : AAC\nFormat/Info : Advanced Audio Codec\nFormat profile : LC\nCodec ID : 40\nDuration : 44mn 11s\nBit rate mode : Variable\nBit rate : 128 Kbps\nMaximum bit rate : 148 Kbps\nChannel(s) : 2 channels\nChannel positions : Front: L R\nSampling rate : 48.0 KHz\nCompression mode : Lossy\nStream size : 40.5 MiB (13%)\n\n-------------------------------------------------------------------------------\n                                 Release Notes\n-------------------------------------------------------------------------------\nBig Brother Canada - S03E06\nAirdate: April 05, 2015","torrent":{"xt":"urn:btih:066caf908985f8fa360eac0d2b58b6c22ab5c854","amp;dn":"Big+Brother+Canada+S03E06+HDTV+x264-LaS","amp;tr":["udp%3A%2F%2Ftracker.openbittorrent.com%3A80","udp%3A%2F%2Fopen.demonii.com%3A1337","udp%3A%2F%2Ftracker.coppersurfer.tk%3A6969","udp%3A%2F%2Fexodus.desync.com%3A6969"],"infoHash":"066caf908985f8fa360eac0d2b58b6c22ab5c854","infoHashBuffer":{"type":"Buffer","data":[6,108,175,144,137,133,248,250,54,14,172,13,43,88,182,194,42,181,200,84]},"announce":[],"urlList":[]}}